<?xml version="1.0" encoding="UTF-8"?>
<!DOCTYPE svg PUBLIC "-//W3C//DTD SVG 1.1//EN" "http://www.w3.org/Graphics/SVG/1.1/DTD/svg11.dtd">
<svg version="1.1" xmlns="http://www.w3.org/2000/svg" xmlns:xlink="http://www.w3.org/1999/xlink" x="0" y="0" width="32" height="32" viewBox="0, 0, 32, 32">
  <g id="Layer_1">
    <path d="M2.812,9.041 L26.013,4.95 C27.863,4.624 29.628,5.86 29.954,7.71 L31.948,19.017 C32.274,20.868 31.038,22.632 29.188,22.959 L5.987,27.05 C4.137,27.376 2.372,26.14 2.046,24.29 L0.052,12.983 C-0.274,11.132 0.962,9.368 2.812,9.041 z" fill="#FFFFFF"/>
    <g>
      <path d="M13.743,11.805 C11.938,14.541 9.842,18.753 9.395,20.345 C9.143,21.276 9.376,21.859 9.648,22.111 C9.784,22.247 9.881,22.247 9.958,22.053 C11.472,18.501 13.122,15.784 14.287,13.668 C14.811,12.717 14.946,12.076 14.927,11.611 C16.053,11.417 17.276,11.222 18.227,11.319 C18.479,11.339 18.518,11.184 18.46,11.028 C18.168,10.271 17.431,10.058 16.616,10.038 C15.509,10 12.287,10.718 10.56,10.582 C10.366,10.562 10.288,10.66 10.346,10.834 C10.56,11.552 11.395,11.979 12.559,11.941 C12.908,11.921 13.297,11.882 13.743,11.805 z" fill="#3F50B5"/>
      <path d="M19.76,18.947 C19.702,19.53 19.682,20.034 19.682,20.422 C19.702,21.529 20.012,22.014 20.401,22.189 C20.575,22.266 20.692,22.208 20.692,22.014 C20.73,20.985 20.847,19.918 20.983,18.909 C21.313,18.928 21.584,18.967 21.817,19.025 C21.992,19.083 22.07,19.025 22.031,18.85 C21.953,18.443 21.74,18.055 21.157,17.86 C21.526,15.725 22.07,13.746 22.574,12.212 C22.749,11.688 22.768,11.261 22.574,10.795 C22.38,10.31 22.322,10.271 22.128,10 C21.934,9.728 21.74,9.728 21.429,9.98 C19.372,11.669 16.674,15.512 15.16,18.152 C14.849,18.132 14.558,18.093 14.287,18.055 C13.995,18.016 13.957,18.093 14.054,18.346 C14.112,18.482 14.267,18.773 14.694,19.006 C14.461,19.433 14.287,19.821 14.17,20.112 C13.762,21.199 13.84,21.781 14.073,22.092 C14.17,22.228 14.345,22.228 14.422,22.053 C14.811,21.199 15.315,20.248 15.898,19.258 C16.81,19.277 18.382,19.044 19.76,18.947 z M16.635,18.093 C18.11,15.784 19.876,13.435 21.352,11.785 C20.75,13.299 20.206,15.745 19.915,17.763 C19.003,17.783 17.819,17.996 16.635,18.093 z" fill="#3F50B5"/>
    </g>
  </g>
</svg>
