<?xml version="1.0" standalone="no"?>
<!DOCTYPE svg PUBLIC "-//W3C//DTD SVG 20010904//EN"
 "http://www.w3.org/TR/2001/REC-SVG-20010904/DTD/svg10.dtd">
<svg version="1.0" xmlns="http://www.w3.org/2000/svg"
 width="1340.000000pt" height="1340.000000pt" viewBox="0 0 1340.000000 1340.000000"
 preserveAspectRatio="xMidYMid meet">
<metadata>
Created by potrace 1.11, written by Peter Selinger 2001-2013
</metadata>
<g transform="translate(0.000000,1340.000000) scale(0.100000,-0.100000)"
fill="#000000" stroke="none">
<path d="M11000 11340 c-68 -7 -9681 -1699 -9863 -1736 -267 -53 -511 -187
-712 -388 -280 -281 -419 -614 -418 -1006 l0 -155 427 -2420 c234 -1331 438
-2465 452 -2520 115 -457 477 -842 928 -989 159 -52 267 -69 446 -68 l165 0
4907 866 c2699 476 4929 870 4955 876 253 55 495 191 688 384 282 283 420 616
418 1011 l-1 160 -426 2415 c-234 1328 -438 2460 -452 2515 -116 458 -473 838
-928 989 -175 58 -415 85 -586 66z m-1514 -1819 c80 -49 228 -308 280 -490 24
-86 26 -104 21 -220 -6 -139 -8 -147 -125 -521 -190 -605 -365 -1298 -472
-1875 -23 -121 -43 -225 -45 -231 -2 -6 35 -30 81 -54 139 -68 223 -169 268
-319 9 -30 16 -72 16 -92 0 -58 -21 -64 -133 -40 -106 23 -295 47 -303 39 -20
-21 -104 -847 -120 -1183 -4 -77 -11 -150 -15 -163 -25 -68 -130 -44 -224 52
-103 104 -157 240 -186 471 -13 107 -7 540 11 710 5 49 7 92 4 94 -5 6 -236
-14 -689 -59 -414 -41 -593 -56 -795 -66 l-125 -6 -95 -166 c-163 -288 -249
-448 -390 -735 -75 -152 -145 -286 -155 -297 -28 -31 -81 -26 -115 10 -48 51
-81 152 -87 261 -13 228 67 508 254 885 65 132 74 157 61 165 -101 56 -204
169 -244 266 -28 68 -30 96 -8 117 19 20 52 20 185 1 57 -8 145 -17 195 -21
90 -7 92 -6 104 17 70 134 396 657 621 994 472 710 968 1357 1409 1840 235
257 548 551 651 609 54 32 120 34 165 7z m-1964 -110 c228 -53 378 -159 464
-330 33 -67 41 -128 21 -156 -15 -19 -28 -20 -299 -21 -342 -1 -508 -18 -1041
-105 l-137 -23 0 -72 c0 -163 -67 -389 -190 -639 -43 -88 -205 -385 -361 -660
-726 -1288 -1071 -1960 -1446 -2815 -52 -118 -101 -222 -110 -232 -26 -29 -60
-22 -107 22 -54 50 -110 155 -132 246 -24 101 -22 282 5 411 102 481 721 1788
1389 2933 130 222 320 532 397 648 24 36 43 67 41 69 -2 2 -32 -1 -68 -6 -242
-39 -538 -52 -694 -30 -110 15 -236 53 -334 102 -159 78 -303 250 -317 380 -4
34 -1 46 16 61 19 17 38 18 248 17 347 -3 592 20 1428 134 259 35 515 69 570
74 55 6 116 13 135 15 19 2 125 3 235 1 156 -3 219 -8 287 -24z"/>
<path d="M9053 8508 c-382 -446 -749 -918 -1154 -1485 -206 -288 -645 -941
-637 -948 5 -5 274 23 654 69 282 34 423 48 612 62 87 6 92 7 92 29 0 42 90
562 145 830 117 580 249 1080 389 1478 24 70 43 127 41 127 -1 0 -65 -73 -142
-162z"/>
</g>
</svg>
