<?xml version="1.0" standalone="no"?>
<!DOCTYPE svg PUBLIC "-//W3C//DTD SVG 20010904//EN"
 "http://www.w3.org/TR/2001/REC-SVG-20010904/DTD/svg10.dtd">
<svg version="1.0" xmlns="http://www.w3.org/2000/svg"
 width="1340.000000pt" height="1340.000000pt" viewBox="0 0 1340.000000 1340.000000"
 preserveAspectRatio="xMidYMid meet">
<metadata>
Created by potrace 1.11, written by Peter Selinger 2001-2013
</metadata>
<g transform="translate(0.000000,1340.000000) scale(0.100000,-0.100000)"
fill="#000000" stroke="none">
<path d="M11058 11345 c-2 -1 -39 -6 -82 -9 -43 -4 -82 -8 -85 -11 -4 -2 -25
-6 -47 -9 -22 -4 -49 -8 -61 -10 -12 -3 -43 -8 -70 -12 -26 -5 -50 -9 -53 -9
-3 -1 -25 -5 -50 -9 -25 -5 -54 -10 -65 -12 -51 -10 -304 -54 -340 -60 -22 -3
-85 -14 -140 -24 -55 -10 -118 -21 -140 -25 -55 -10 -71 -13 -225 -40 -74 -14
-152 -27 -174 -31 -21 -3 -48 -8 -60 -10 -60 -12 -143 -27 -296 -53 -134 -23
-843 -148 -880 -155 -14 -3 -144 -25 -290 -51 -146 -25 -301 -52 -345 -60 -71
-13 -308 -56 -390 -70 -16 -3 -41 -7 -55 -10 -85 -15 -210 -37 -240 -41 -19
-2 -69 -11 -110 -19 -41 -8 -91 -17 -110 -20 -42 -7 -187 -33 -215 -39 -11 -2
-42 -7 -70 -11 -27 -5 -52 -9 -55 -10 -3 0 -27 -5 -55 -10 -27 -4 -54 -9 -60
-11 -5 -1 -26 -4 -45 -8 -19 -3 -46 -8 -60 -11 -13 -2 -40 -7 -60 -10 -20 -3
-47 -8 -60 -10 -32 -6 -110 -20 -230 -40 -52 -9 -106 -18 -120 -21 -29 -5
-119 -22 -169 -30 -18 -3 -43 -8 -55 -10 -17 -3 -144 -26 -326 -58 -14 -3 -43
-7 -65 -11 -22 -3 -47 -7 -55 -10 -8 -2 -33 -6 -55 -10 -36 -5 -254 -43 -460
-80 -167 -30 -301 -54 -335 -59 -19 -3 -46 -8 -60 -11 -14 -3 -52 -10 -85 -15
-33 -6 -71 -12 -85 -15 -71 -12 -342 -61 -390 -69 -37 -6 -74 -13 -112 -20
-13 -3 -79 -14 -148 -26 -69 -12 -136 -23 -150 -26 -14 -2 -77 -14 -140 -25
-63 -11 -126 -22 -140 -25 -14 -2 -41 -7 -60 -9 -19 -3 -55 -10 -80 -15 -25
-5 -63 -12 -85 -15 -41 -7 -65 -11 -112 -20 -16 -3 -91 -16 -168 -30 -77 -13
-178 -31 -225 -39 -47 -8 -150 -27 -230 -41 -80 -13 -167 -29 -195 -34 -27 -6
-68 -13 -90 -16 -22 -3 -47 -7 -55 -10 -8 -2 -33 -6 -55 -10 -140 -20 -434
-78 -510 -100 -90 -26 -105 -32 -225 -87 -166 -76 -369 -242 -497 -405 -68
-87 -163 -244 -163 -268 0 -8 -4 -15 -10 -15 -5 0 -10 -5 -10 -12 0 -6 -11
-39 -24 -72 -14 -34 -34 -97 -45 -141 -36 -142 -43 -191 -45 -339 -3 -134 3
-187 44 -420 11 -61 22 -127 25 -146 3 -19 8 -42 10 -50 2 -8 6 -33 10 -55 3
-22 7 -47 10 -55 2 -8 6 -33 10 -55 3 -22 12 -76 20 -120 14 -80 49 -278 60
-345 3 -19 8 -42 10 -50 2 -8 6 -33 9 -55 4 -22 8 -51 11 -65 12 -60 30 -156
39 -220 3 -19 8 -46 11 -60 3 -14 12 -68 21 -120 9 -52 18 -104 20 -115 2 -11
7 -36 10 -55 4 -19 8 -44 10 -55 5 -22 10 -50 24 -137 6 -32 12 -70 15 -85 3
-16 8 -48 11 -73 3 -25 8 -48 10 -51 3 -5 9 -36 20 -104 2 -16 11 -66 19 -110
8 -44 17 -93 20 -110 3 -16 7 -41 10 -55 2 -14 14 -79 25 -145 11 -66 23 -131
25 -145 11 -56 47 -267 52 -295 2 -16 14 -79 25 -140 12 -60 22 -119 23 -130
2 -24 12 -82 26 -145 5 -25 11 -61 14 -80 3 -19 12 -71 20 -115 8 -44 17 -96
20 -115 3 -19 10 -57 15 -85 6 -27 12 -63 14 -80 7 -48 36 -214 51 -292 8 -40
17 -87 20 -105 2 -18 7 -44 9 -58 3 -14 7 -41 10 -60 3 -19 8 -47 11 -62 5
-29 7 -40 25 -141 85 -476 335 -834 738 -1054 68 -37 228 -102 292 -119 116
-30 233 -46 355 -48 134 -3 226 8 500 58 17 3 41 8 55 10 14 3 144 26 290 51
146 25 276 48 290 51 14 2 88 16 165 29 77 14 151 27 165 30 14 3 39 7 55 10
17 2 41 7 55 9 14 3 117 21 230 41 113 19 216 37 230 40 105 18 321 56 345 60
17 3 77 14 135 25 58 10 121 21 140 24 19 3 73 13 120 21 47 9 137 25 200 36
63 11 153 27 200 35 47 8 137 24 200 35 63 12 129 23 145 26 27 4 122 21 380
68 44 8 100 17 125 20 24 4 47 8 50 10 3 1 27 6 53 9 26 4 71 11 100 17 58 11
643 114 697 123 19 3 45 8 58 10 13 3 78 14 145 26 67 11 142 25 167 30 25 5
63 12 85 15 22 3 47 7 55 10 8 2 31 6 50 9 19 3 100 17 180 31 80 14 159 27
175 30 17 3 53 10 80 15 28 5 65 12 83 15 75 12 98 16 112 20 8 2 35 7 60 10
25 3 52 8 60 10 8 2 31 6 50 9 19 3 46 8 60 10 21 4 254 46 345 61 17 3 64 12
106 20 42 8 98 17 125 21 27 3 52 8 55 10 3 1 28 6 55 9 27 4 57 8 66 11 20 6
44 11 94 19 77 12 101 16 209 35 130 24 377 67 420 74 17 3 41 8 55 11 14 2
39 7 55 10 17 2 84 14 150 26 66 11 131 22 145 25 14 2 63 11 110 19 47 8 99
17 115 20 17 3 53 10 80 15 28 5 68 12 90 16 22 3 47 7 55 9 8 2 29 7 45 9 17
3 109 19 205 36 96 17 213 37 260 45 47 8 95 17 106 19 12 2 39 7 60 10 41 7
241 43 284 51 28 6 65 13 113 20 147 25 322 59 367 71 607 168 1036 720 1043
1339 1 124 -4 214 -17 281 -3 12 -7 37 -10 55 -8 47 -22 127 -41 234 -53 296
-87 493 -90 510 -1 11 -24 139 -50 285 -26 146 -49 279 -51 295 -3 17 -9 50
-14 75 -5 25 -12 61 -15 80 -3 19 -8 48 -11 63 -3 16 -7 38 -9 50 -2 12 -13
76 -24 142 -12 66 -24 136 -27 155 -3 19 -7 42 -9 50 -2 8 -7 38 -11 65 -3 28
-8 53 -10 56 -2 3 -5 19 -8 35 -21 122 -47 273 -51 294 -5 31 -182 1034 -189
1075 -22 125 -57 324 -61 345 -6 28 -7 35 -30 170 -9 52 -18 106 -21 120 -2
14 -6 36 -9 50 -3 14 -10 54 -16 90 -5 36 -14 85 -19 110 -5 25 -12 61 -14 80
-3 19 -8 46 -11 60 -3 14 -8 41 -11 60 -36 222 -78 369 -149 511 -138 278
-339 485 -615 631 -102 55 -268 116 -355 132 -17 3 -39 8 -50 10 -72 14 -121
19 -221 21 -62 1 -114 1 -116 0z"/>
</g>
</svg>
